# xmcd
#
# Track frame offsets:
#	150
#	13566
#	29953
#	40297
#	55124
#	71434
#	87656
#	101728
#	116276
#	125334
#	149860
#	164416
#	178828
#	193168
#	204070
#	219767
#	233002
#	243866
#	257937
#
# Disc length: 3694 seconds
#
# Revision: 3
# Processed by: cddbd v1.5.2PL0 Copyright (c) Steve Scherf et al.
# Submitted via: EZCDAudioConverter 2.1.7.1
#
DISCID=150e6c13
DTITLE=Fairport Convention - Live At The BBC 1/4
DYEAR=2007
DGENRE=
TTITLE0=Close The Door Lightly When You Go
TTITLE1=I Don't Know Where I Stand
TTITLE2=Some Sweet Day
TTITLE3=You Never Wanted Me
TTITLE4=Nottamun Town
TTITLE5=Marcie
TTITLE6=Night In The City
TTITLE7=Jack O' Diamonds
TTITLE8=Gone, Gone, Gone
TTITLE9=Suzanne
TTITLE10=If It Feels Good, You Know
TTITLE11=Eastern Rain
TTITLE12=Fotheringay
TTITLE13=I Still Miss Someone
TTITLE14=Bird On A Wire
TTITLE15=Tried So Hard
TTITLE16=Reno Nevada
TTITLE17=Book Song
TTITLE18=Who Knows Where The Time Goes?
EXTD=
EXTT0=
EXTT1=
EXTT2=
EXTT3=
EXTT4=
EXTT5=
EXTT6=
EXTT7=
EXTT8=
EXTT9=
EXTT10=
EXTT11=
EXTT12=
EXTT13=
EXTT14=
EXTT15=
EXTT16=
EXTT17=
EXTT18=
PLAYORDER=
